<?xml version="1.0" standalone="no"?><!DOCTYPE svg PUBLIC "-//W3C//DTD SVG 1.1//EN" "http://www.w3.org/Graphics/SVG/1.1/DTD/svg11.dtd"><svg t="1557221189390" class="icon" style="" viewBox="0 0 1024 1024" version="1.1" xmlns="http://www.w3.org/2000/svg" p-id="3476" xmlns:xlink="http://www.w3.org/1999/xlink" width="16" height="16"><defs><style type="text/css"></style></defs><path d="M1024 512.170667C1024 794.965333 794.794667 1024 512.170667 1024 229.205333 1024 0 794.965333 0 512.170667S229.205333 0 512.170667 0C794.794667 0 1024 229.376 1024 512.170667z m-469.333333 61.166933V237.294933c0-24.917333-19.217067-45.294933-42.666667-45.294933-23.483733 0-42.666667 20.3776-42.666667 45.294933v336.042667c0 24.9856 19.217067 45.329067 42.666667 45.329067 23.483733 0 42.666667-20.343467 42.666667-45.329067z m10.683733 205.312c0-29.4912-24.064-53.316267-53.3504-53.316267a53.248 53.248 0 0 0-53.3504 53.3504A53.248 53.248 0 0 0 512 832c29.252267 0 53.3504-23.825067 53.3504-53.3504z" p-id="3477" fill="#faad14"></path></svg>